<?xml version="1.0"?>
<svg width="89" height="91" xmlns="http://www.w3.org/2000/svg" xmlns:svg="http://www.w3.org/2000/svg" enable-background="new 0 0 750 500" version="1.1" xml:space="preserve">
 <g class="layer">
  <title>Layer 1</title>
  <g id="svg_70" transform="matrix(1.04134 0 0 1 -3.50058 0)">
   <g id="svg_71">
    <linearGradient id="SVGID_00000146500635927400448080000001892617013266421649_" x1="0" x2="1" y1="0.5" y2="0.5">
     <stop offset="0" stop-color="#FCED00"/>
     <stop offset="0.12" stop-color="#FCE403"/>
     <stop offset="0.31" stop-color="#FACD0C"/>
     <stop offset="0.54" stop-color="#F9A71A"/>
     <stop offset="0.81" stop-color="#F6732D"/>
     <stop offset="0.99" stop-color="#F44B3C"/>
    </linearGradient>
    <path d="m3.36,45.58c0,10.21 2.99,19.17 8.08,26.39c9.85,-2.44 17.28,-13.33 17.28,-26.39c0,-13.05 -7.41,-23.92 -17.23,-26.38c-5.12,7.23 -8.13,16.19 -8.13,26.38z" fill="url(#SVGID_00000146500635927400448080000001892617013266421649_)" id="svg_72"/>
    <path d="m8.64,23.87c-3.35,6.3 -5.28,13.61 -5.28,21.71c0,8.12 1.91,15.43 5.24,21.71c7.3,-2.98 12.59,-11.56 12.59,-21.71c0,-10.14 -5.27,-18.71 -12.55,-21.71z" fill="#FFFFFF" id="svg_73" opacity="0.3"/>
    <path d="m11.64,19.24c8.01,4.52 13.61,14.6 13.61,26.34c0,11.73 -5.59,21.8 -13.61,26.32c9.75,-2.54 17.08,-13.35 17.08,-26.32c0,-12.98 -7.33,-23.8 -17.08,-26.34z" fill="#F44B3C" id="svg_74" opacity="0.5"/>
   </g>
   <g id="svg_75">
    <g id="svg_76">
     <linearGradient id="SVGID_00000062910849910548720150000004890435875306599565_" x1="0" x2="1" y1="0.5" y2="0.5">
      <stop offset="0" stop-color="#F44B3C"/>
      <stop offset="0.14" stop-color="#DD486E"/>
      <stop offset="0.28" stop-color="#C8459A"/>
      <stop offset="0.43" stop-color="#B742BF"/>
      <stop offset="0.57" stop-color="#AA40DB"/>
      <stop offset="0.71" stop-color="#A03FEF"/>
      <stop offset="0.86" stop-color="#9B3EFB"/>
      <stop offset="1" stop-color="#993EFF"/>
     </linearGradient>
     <path d="m79.49,54.38l-0.87,-0.2c-4.94,-1.07 -10.05,0.96 -12.87,5.15c-3.62,5.37 -9.08,7.83 -15.44,7.83c-2.7,0 -5.2,-0.42 -7.46,-1.22c-5.88,-2.09 -12.39,0.48 -15.09,6.11l0,0c-3.18,6.61 0.17,14.58 7.17,16.78c4.83,1.52 10,2.32 15.38,2.32c14.96,0 28.33,-6.44 36.5,-17.28c5.41,-7.19 1.48,-17.58 -7.32,-19.49z" fill="url(#SVGID_00000062910849910548720150000004890435875306599565_)" id="svg_77"/>
     <linearGradient id="SVGID_00000130610019202706001880000006236293743091892381_" x1="0" x2="1" y1="0.5" y2="0.5">
      <stop offset="0" stop-color="#F44B3C"/>
      <stop offset="0.14" stop-color="#DD486E"/>
      <stop offset="0.28" stop-color="#C8459A"/>
      <stop offset="0.43" stop-color="#B742BF"/>
      <stop offset="0.57" stop-color="#AA40DB"/>
      <stop offset="0.71" stop-color="#A03FEF"/>
      <stop offset="0.86" stop-color="#9B3EFB"/>
      <stop offset="1" stop-color="#993EFF"/>
     </linearGradient>
     <path d="m27.76,19.12c2.71,5.64 9.24,8.2 15.14,6.1c2.25,-0.8 4.73,-1.23 7.4,-1.23c6.16,0 11.47,2.38 14.9,7.44c2.97,4.37 8.19,6.62 13.33,5.39l1.03,-0.25c8.72,-2.09 12.44,-12.51 6.94,-19.59c-8.3,-10.69 -21.58,-16.98 -36.2,-16.98c-5.37,0 -10.55,0.81 -15.38,2.34c-6.99,2.22 -10.33,10.17 -7.16,16.78l0,0z" fill="url(#SVGID_00000130610019202706001880000006236293743091892381_)" id="svg_78"/>
    </g>
    <g id="svg_79" opacity="0.5">
     <path d="m79.3,54.33l-0.68,-0.15c-4.94,-1.07 -10.05,0.96 -12.87,5.15c-3.62,5.38 -9.08,7.83 -15.44,7.83c-2.7,0 -5.2,-0.42 -7.46,-1.22c-4.48,-1.59 -9.33,-0.47 -12.58,2.65c5.34,4.63 12.29,7.44 19.91,7.44c13.76,0 25.38,-9.15 29.12,-21.7z" fill="#BA55FF" id="svg_80"/>
     <path d="m30.34,22.64c3.26,3.08 8.09,4.17 12.56,2.58c2.25,-0.8 4.73,-1.23 7.4,-1.23c6.16,0 11.47,2.38 14.9,7.44c2.97,4.38 8.19,6.62 13.33,5.39l0.68,-0.16c-3.83,-12.4 -15.38,-21.4 -29.03,-21.4c-7.59,0 -14.52,2.78 -19.84,7.38z" fill="#BA55FF" id="svg_81"/>
    </g>
    <g id="svg_82" opacity="0.3">
     <path d="m50.18,87.82c-8.52,0 -16.44,-2.53 -23.07,-6.87c1.12,3.6 3.9,6.65 7.82,7.88c4.83,1.52 10,2.32 15.37,2.32c14.97,0 28.34,-6.44 36.51,-17.28c2.54,-3.37 3,-7.45 1.88,-11.03c-6.58,14.72 -21.34,24.98 -38.51,24.98z" fill="#FFFFFF" id="svg_83"/>
     <path d="m50.18,3.46c17.03,0 31.69,10.1 38.35,24.62c1.1,-3.62 0.59,-7.73 -2.03,-11.1c-8.3,-10.69 -21.58,-16.97 -36.19,-16.97c-5.38,0 -10.56,0.81 -15.39,2.34c-3.96,1.25 -6.75,4.36 -7.84,8.01c6.63,-4.36 14.57,-6.9 23.1,-6.9z" fill="#FFFFFF" id="svg_84"/>
    </g>
   </g>
  </g>
 </g>
</svg>